<mxfile host="app.diagrams.net" modified="2023-05-02T10:34:17.325Z" agent="Mozilla/5.0 (Windows NT 10.0; Win64; x64) AppleWebKit/537.36 (KHTML, like Gecko) Chrome/112.0.0.0 Safari/537.36" etag="iPgpiI33v12V0EmPJhR0" version="21.2.4" type="device">
  <diagram name="Pagina-1" id="PiTmdX2rL3zSnqAoCH4I">
    <mxGraphModel dx="1067" dy="1630" grid="1" gridSize="10" guides="1" tooltips="1" connect="1" arrows="1" fold="1" page="1" pageScale="1" pageWidth="827" pageHeight="1169" math="0" shadow="0">
      <root>
        <mxCell id="0" />
        <mxCell id="1" parent="0" />
        <mxCell id="1LnH4NBh6Yx7gNreX3b8-18" style="edgeStyle=orthogonalEdgeStyle;rounded=0;orthogonalLoop=1;jettySize=auto;html=1;exitX=0.5;exitY=1;exitDx=0;exitDy=0;" edge="1" parent="1" source="1LnH4NBh6Yx7gNreX3b8-15">
          <mxGeometry relative="1" as="geometry">
            <mxPoint x="400.0000000000002" y="40.00000000000023" as="targetPoint" />
          </mxGeometry>
        </mxCell>
        <mxCell id="1LnH4NBh6Yx7gNreX3b8-15" value="&lt;span style=&quot;font-size: 24px;&quot;&gt;inserisci voto&lt;/span&gt;" style="rounded=1;whiteSpace=wrap;html=1;" vertex="1" parent="1">
          <mxGeometry x="340" y="-70" width="120" height="60" as="geometry" />
        </mxCell>
        <mxCell id="1LnH4NBh6Yx7gNreX3b8-22" style="edgeStyle=orthogonalEdgeStyle;rounded=0;orthogonalLoop=1;jettySize=auto;html=1;exitX=1;exitY=0.5;exitDx=0;exitDy=0;" edge="1" parent="1" source="1LnH4NBh6Yx7gNreX3b8-21" target="1LnH4NBh6Yx7gNreX3b8-23">
          <mxGeometry relative="1" as="geometry">
            <mxPoint x="520" y="70" as="targetPoint" />
          </mxGeometry>
        </mxCell>
        <mxCell id="1LnH4NBh6Yx7gNreX3b8-29" style="edgeStyle=orthogonalEdgeStyle;rounded=0;orthogonalLoop=1;jettySize=auto;html=1;exitX=0.5;exitY=1;exitDx=0;exitDy=0;" edge="1" parent="1" source="1LnH4NBh6Yx7gNreX3b8-21">
          <mxGeometry relative="1" as="geometry">
            <mxPoint x="400" y="140" as="targetPoint" />
          </mxGeometry>
        </mxCell>
        <mxCell id="1LnH4NBh6Yx7gNreX3b8-21" value="&lt;span style=&quot;font-size: 24px;&quot;&gt;seleziona alunno&amp;nbsp;&lt;/span&gt;" style="rounded=1;whiteSpace=wrap;html=1;" vertex="1" parent="1">
          <mxGeometry x="340" y="40" width="120" height="60" as="geometry" />
        </mxCell>
        <mxCell id="1LnH4NBh6Yx7gNreX3b8-24" style="edgeStyle=orthogonalEdgeStyle;rounded=0;orthogonalLoop=1;jettySize=auto;html=1;exitX=0;exitY=1;exitDx=0;exitDy=0;" edge="1" parent="1" source="1LnH4NBh6Yx7gNreX3b8-23">
          <mxGeometry relative="1" as="geometry">
            <mxPoint x="520" y="140" as="targetPoint" />
          </mxGeometry>
        </mxCell>
        <mxCell id="1LnH4NBh6Yx7gNreX3b8-25" style="edgeStyle=orthogonalEdgeStyle;rounded=0;orthogonalLoop=1;jettySize=auto;html=1;exitX=1;exitY=1;exitDx=0;exitDy=0;" edge="1" parent="1" source="1LnH4NBh6Yx7gNreX3b8-23">
          <mxGeometry relative="1" as="geometry">
            <mxPoint x="650" y="140" as="targetPoint" />
          </mxGeometry>
        </mxCell>
        <mxCell id="1LnH4NBh6Yx7gNreX3b8-23" value="e questo l&#39;alunno?" style="rhombus;whiteSpace=wrap;html=1;" vertex="1" parent="1">
          <mxGeometry x="550" y="30" width="80" height="80" as="geometry" />
        </mxCell>
        <mxCell id="1LnH4NBh6Yx7gNreX3b8-26" value="&lt;font style=&quot;font-size: 24px;&quot;&gt;si&lt;/font&gt;" style="rounded=1;whiteSpace=wrap;html=1;" vertex="1" parent="1">
          <mxGeometry x="490" y="140" width="60" height="60" as="geometry" />
        </mxCell>
        <mxCell id="1LnH4NBh6Yx7gNreX3b8-28" style="edgeStyle=orthogonalEdgeStyle;rounded=0;orthogonalLoop=1;jettySize=auto;html=1;exitX=1;exitY=0.5;exitDx=0;exitDy=0;entryX=0.75;entryY=0;entryDx=0;entryDy=0;" edge="1" parent="1" source="1LnH4NBh6Yx7gNreX3b8-27" target="1LnH4NBh6Yx7gNreX3b8-21">
          <mxGeometry relative="1" as="geometry" />
        </mxCell>
        <mxCell id="1LnH4NBh6Yx7gNreX3b8-27" value="&lt;font style=&quot;font-size: 24px;&quot;&gt;no&lt;/font&gt;" style="rounded=1;whiteSpace=wrap;html=1;" vertex="1" parent="1">
          <mxGeometry x="620" y="140" width="60" height="60" as="geometry" />
        </mxCell>
        <mxCell id="1LnH4NBh6Yx7gNreX3b8-33" style="edgeStyle=orthogonalEdgeStyle;rounded=0;orthogonalLoop=1;jettySize=auto;html=1;exitX=0.5;exitY=1;exitDx=0;exitDy=0;entryX=0.5;entryY=0;entryDx=0;entryDy=0;" edge="1" parent="1" source="1LnH4NBh6Yx7gNreX3b8-31" target="1LnH4NBh6Yx7gNreX3b8-32">
          <mxGeometry relative="1" as="geometry">
            <Array as="points">
              <mxPoint x="400" y="220" />
              <mxPoint x="400" y="220" />
            </Array>
          </mxGeometry>
        </mxCell>
        <mxCell id="1LnH4NBh6Yx7gNreX3b8-31" value="&lt;span style=&quot;font-size: 24px;&quot;&gt;inserisci il voto&lt;/span&gt;" style="rounded=1;whiteSpace=wrap;html=1;" vertex="1" parent="1">
          <mxGeometry x="340" y="140" width="120" height="60" as="geometry" />
        </mxCell>
        <mxCell id="1LnH4NBh6Yx7gNreX3b8-34" style="edgeStyle=orthogonalEdgeStyle;rounded=0;orthogonalLoop=1;jettySize=auto;html=1;exitX=0.5;exitY=1;exitDx=0;exitDy=0;" edge="1" parent="1" source="1LnH4NBh6Yx7gNreX3b8-32">
          <mxGeometry relative="1" as="geometry">
            <mxPoint x="399.6666666666665" y="330" as="targetPoint" />
          </mxGeometry>
        </mxCell>
        <mxCell id="1LnH4NBh6Yx7gNreX3b8-32" value="&lt;span style=&quot;font-size: 24px;&quot;&gt;inserisci una data&amp;nbsp;&lt;/span&gt;" style="rounded=1;whiteSpace=wrap;html=1;" vertex="1" parent="1">
          <mxGeometry x="340" y="240" width="120" height="60" as="geometry" />
        </mxCell>
        <mxCell id="1LnH4NBh6Yx7gNreX3b8-37" style="edgeStyle=orthogonalEdgeStyle;rounded=0;orthogonalLoop=1;jettySize=auto;html=1;exitX=0;exitY=0.5;exitDx=0;exitDy=0;entryX=1.056;entryY=0.512;entryDx=0;entryDy=0;entryPerimeter=0;" edge="1" parent="1" source="1LnH4NBh6Yx7gNreX3b8-35" target="1LnH4NBh6Yx7gNreX3b8-36">
          <mxGeometry relative="1" as="geometry" />
        </mxCell>
        <mxCell id="1LnH4NBh6Yx7gNreX3b8-35" value="&lt;span style=&quot;font-size: 24px;&quot;&gt;inserisci annotazione&lt;/span&gt;" style="rounded=1;whiteSpace=wrap;html=1;" vertex="1" parent="1">
          <mxGeometry x="340" y="330" width="130" height="60" as="geometry" />
        </mxCell>
        <mxCell id="1LnH4NBh6Yx7gNreX3b8-38" style="edgeStyle=orthogonalEdgeStyle;rounded=0;orthogonalLoop=1;jettySize=auto;html=1;exitX=0.5;exitY=0;exitDx=0;exitDy=0;entryX=0.5;entryY=0;entryDx=0;entryDy=0;" edge="1" parent="1" source="1LnH4NBh6Yx7gNreX3b8-36" target="1LnH4NBh6Yx7gNreX3b8-36">
          <mxGeometry relative="1" as="geometry" />
        </mxCell>
        <mxCell id="1LnH4NBh6Yx7gNreX3b8-39" style="edgeStyle=orthogonalEdgeStyle;rounded=0;orthogonalLoop=1;jettySize=auto;html=1;exitX=0;exitY=0;exitDx=0;exitDy=0;entryX=0;entryY=0;entryDx=0;entryDy=0;" edge="1" parent="1" source="1LnH4NBh6Yx7gNreX3b8-36" target="1LnH4NBh6Yx7gNreX3b8-36">
          <mxGeometry relative="1" as="geometry">
            <mxPoint x="120" y="280" as="targetPoint" />
          </mxGeometry>
        </mxCell>
        <mxCell id="1LnH4NBh6Yx7gNreX3b8-42" style="edgeStyle=orthogonalEdgeStyle;rounded=0;orthogonalLoop=1;jettySize=auto;html=1;exitX=0;exitY=0;exitDx=0;exitDy=0;entryX=1;entryY=0.5;entryDx=0;entryDy=0;" edge="1" parent="1" source="1LnH4NBh6Yx7gNreX3b8-36">
          <mxGeometry relative="1" as="geometry">
            <mxPoint x="170" y="260" as="targetPoint" />
          </mxGeometry>
        </mxCell>
        <mxCell id="1LnH4NBh6Yx7gNreX3b8-43" style="edgeStyle=orthogonalEdgeStyle;rounded=0;orthogonalLoop=1;jettySize=auto;html=1;exitX=1;exitY=0;exitDx=0;exitDy=0;entryX=0;entryY=0.25;entryDx=0;entryDy=0;" edge="1" parent="1" source="1LnH4NBh6Yx7gNreX3b8-36">
          <mxGeometry relative="1" as="geometry">
            <mxPoint x="250" y="245" as="targetPoint" />
            <Array as="points">
              <mxPoint x="247" y="300" />
              <mxPoint x="230" y="300" />
              <mxPoint x="230" y="245" />
            </Array>
          </mxGeometry>
        </mxCell>
        <mxCell id="1LnH4NBh6Yx7gNreX3b8-36" value="sei sicuro di voler confermare il voto?" style="rhombus;whiteSpace=wrap;html=1;" vertex="1" parent="1">
          <mxGeometry x="150" y="300" width="130" height="120" as="geometry" />
        </mxCell>
        <mxCell id="1LnH4NBh6Yx7gNreX3b8-59" style="edgeStyle=orthogonalEdgeStyle;rounded=0;orthogonalLoop=1;jettySize=auto;html=1;exitX=0;exitY=0.5;exitDx=0;exitDy=0;entryX=0;entryY=0.5;entryDx=0;entryDy=0;" edge="1" parent="1" source="1LnH4NBh6Yx7gNreX3b8-44" target="1LnH4NBh6Yx7gNreX3b8-48">
          <mxGeometry relative="1" as="geometry" />
        </mxCell>
        <mxCell id="1LnH4NBh6Yx7gNreX3b8-44" value="&lt;font style=&quot;font-size: 24px;&quot;&gt;si&lt;/font&gt;" style="rounded=1;whiteSpace=wrap;html=1;" vertex="1" parent="1">
          <mxGeometry x="140" y="200" width="60" height="60" as="geometry" />
        </mxCell>
        <mxCell id="1LnH4NBh6Yx7gNreX3b8-46" style="edgeStyle=orthogonalEdgeStyle;rounded=0;orthogonalLoop=1;jettySize=auto;html=1;exitX=0.5;exitY=0;exitDx=0;exitDy=0;entryX=0;entryY=0.5;entryDx=0;entryDy=0;" edge="1" parent="1" source="1LnH4NBh6Yx7gNreX3b8-45" target="1LnH4NBh6Yx7gNreX3b8-31">
          <mxGeometry relative="1" as="geometry" />
        </mxCell>
        <mxCell id="1LnH4NBh6Yx7gNreX3b8-45" value="&lt;font style=&quot;font-size: 24px;&quot;&gt;no&lt;/font&gt;" style="rounded=1;whiteSpace=wrap;html=1;" vertex="1" parent="1">
          <mxGeometry x="250" y="220" width="60" height="60" as="geometry" />
        </mxCell>
        <mxCell id="1LnH4NBh6Yx7gNreX3b8-58" style="edgeStyle=orthogonalEdgeStyle;rounded=0;orthogonalLoop=1;jettySize=auto;html=1;exitX=1;exitY=0.5;exitDx=0;exitDy=0;entryX=0;entryY=0.5;entryDx=0;entryDy=0;" edge="1" parent="1" source="1LnH4NBh6Yx7gNreX3b8-48" target="1LnH4NBh6Yx7gNreX3b8-49">
          <mxGeometry relative="1" as="geometry" />
        </mxCell>
        <mxCell id="1LnH4NBh6Yx7gNreX3b8-48" value="&lt;span style=&quot;font-size: 24px;&quot;&gt;voto confermato&lt;/span&gt;" style="rounded=1;whiteSpace=wrap;html=1;" vertex="1" parent="1">
          <mxGeometry x="340" y="480" width="130" height="60" as="geometry" />
        </mxCell>
        <mxCell id="1LnH4NBh6Yx7gNreX3b8-54" style="edgeStyle=orthogonalEdgeStyle;rounded=0;orthogonalLoop=1;jettySize=auto;html=1;exitX=0;exitY=1;exitDx=0;exitDy=0;entryX=1;entryY=0.5;entryDx=0;entryDy=0;" edge="1" parent="1" source="1LnH4NBh6Yx7gNreX3b8-49" target="1LnH4NBh6Yx7gNreX3b8-52">
          <mxGeometry relative="1" as="geometry" />
        </mxCell>
        <mxCell id="1LnH4NBh6Yx7gNreX3b8-55" style="edgeStyle=orthogonalEdgeStyle;rounded=0;orthogonalLoop=1;jettySize=auto;html=1;exitX=1;exitY=1;exitDx=0;exitDy=0;entryX=0;entryY=0.5;entryDx=0;entryDy=0;" edge="1" parent="1" source="1LnH4NBh6Yx7gNreX3b8-49" target="1LnH4NBh6Yx7gNreX3b8-53">
          <mxGeometry relative="1" as="geometry" />
        </mxCell>
        <mxCell id="1LnH4NBh6Yx7gNreX3b8-49" value="inserire un altro voto?" style="rhombus;whiteSpace=wrap;html=1;" vertex="1" parent="1">
          <mxGeometry x="550" y="447.5" width="120" height="125" as="geometry" />
        </mxCell>
        <mxCell id="1LnH4NBh6Yx7gNreX3b8-56" style="edgeStyle=orthogonalEdgeStyle;rounded=0;orthogonalLoop=1;jettySize=auto;html=1;exitX=0;exitY=0.5;exitDx=0;exitDy=0;entryX=1;entryY=0.5;entryDx=0;entryDy=0;" edge="1" parent="1" source="1LnH4NBh6Yx7gNreX3b8-52" target="1LnH4NBh6Yx7gNreX3b8-15">
          <mxGeometry relative="1" as="geometry">
            <Array as="points">
              <mxPoint x="530" y="380" />
              <mxPoint x="530" y="310" />
              <mxPoint x="760" y="310" />
              <mxPoint x="760" y="-40" />
            </Array>
          </mxGeometry>
        </mxCell>
        <mxCell id="1LnH4NBh6Yx7gNreX3b8-52" value="&lt;font style=&quot;font-size: 24px;&quot;&gt;si&lt;/font&gt;" style="rounded=1;whiteSpace=wrap;html=1;" vertex="1" parent="1">
          <mxGeometry x="580" y="350" width="60" height="60" as="geometry" />
        </mxCell>
        <mxCell id="1LnH4NBh6Yx7gNreX3b8-61" style="edgeStyle=orthogonalEdgeStyle;rounded=0;orthogonalLoop=1;jettySize=auto;html=1;exitX=0;exitY=0.75;exitDx=0;exitDy=0;" edge="1" parent="1" source="1LnH4NBh6Yx7gNreX3b8-53">
          <mxGeometry relative="1" as="geometry">
            <mxPoint x="400.04761904761904" y="670" as="targetPoint" />
          </mxGeometry>
        </mxCell>
        <mxCell id="1LnH4NBh6Yx7gNreX3b8-53" value="&lt;font style=&quot;font-size: 24px;&quot;&gt;no&lt;/font&gt;" style="rounded=1;whiteSpace=wrap;html=1;" vertex="1" parent="1">
          <mxGeometry x="650" y="585" width="60" height="60" as="geometry" />
        </mxCell>
        <mxCell id="1LnH4NBh6Yx7gNreX3b8-63" value="&lt;span style=&quot;font-size: 24px;&quot;&gt;out&lt;/span&gt;" style="rounded=1;whiteSpace=wrap;html=1;" vertex="1" parent="1">
          <mxGeometry x="335" y="670" width="130" height="60" as="geometry" />
        </mxCell>
      </root>
    </mxGraphModel>
  </diagram>
</mxfile>
